<?xml version="1.0" standalone="no"?>
<!DOCTYPE svg PUBLIC "-//W3C//DTD SVG 20010904//EN"
 "http://www.w3.org/TR/2001/REC-SVG-20010904/DTD/svg10.dtd">
<svg version="1.0" xmlns="http://www.w3.org/2000/svg"
 width="1156.000000pt" height="732.000000pt" viewBox="0 0 1156.000000 732.000000"
 preserveAspectRatio="xMidYMid meet">

<g transform="translate(0.000000,732.000000) scale(0.100000,-0.100000)"
fill="#000000" stroke="none">
<path d="M10205 6931 c-132 -23 -199 -140 -146 -257 24 -53 74 -91 137 -104
31 -6 260 -9 624 -7 555 2 576 3 609 22 115 68 135 213 42 298 -26 23 -56 39
-90 46 -57 12 -1106 14 -1176 2z"/>
<path d="M2404 5871 c-70 -43 -194 -267 -194 -350 0 -161 206 -191 335 -50 54
59 80 103 99 168 33 112 9 193 -66 230 -56 27 -132 28 -174 2z"/>
<path d="M811 5679 c-162 -27 -254 -126 -255 -274 -1 -87 23 -153 70 -195 43
-37 83 -39 232 -10 56 11 118 20 136 20 l33 0 7 -109 c4 -59 6 -304 4 -542
l-3 -434 25 -50 c34 -68 90 -96 188 -96 148 0 233 90 287 305 38 152 48 286
43 620 l-3 306 143 0 c79 0 163 5 188 11 92 24 137 105 114 207 -33 147 -210
221 -580 242 -211 12 -554 11 -629 -1z"/>
<path d="M2739 5247 c-26 -7 -64 -28 -87 -45 l-40 -32 -46 21 c-110 48 -311
63 -450 34 -243 -51 -392 -232 -428 -519 -30 -240 59 -486 219 -608 90 -68
157 -90 284 -96 154 -6 287 33 376 111 l35 30 56 -63 c31 -34 71 -69 89 -76
53 -22 161 -18 213 9 93 47 100 81 100 491 1 318 6 373 45 516 22 79 16 108
-30 154 -66 66 -232 102 -336 73z m-260 -489 c22 -8 23 -12 20 -87 -5 -91 -21
-122 -85 -158 -52 -30 -131 -31 -167 -3 -65 52 -54 188 19 237 48 31 145 37
213 11z"/>
<path d="M6315 5254 c-62 -16 -90 -29 -121 -56 l-33 -30 -63 25 c-163 65 -400
63 -558 -5 -119 -51 -227 -180 -276 -331 -39 -118 -45 -308 -15 -428 32 -127
73 -203 155 -285 106 -105 201 -144 360 -144 136 0 232 30 340 107 26 19 51
31 55 26 4 -4 24 -29 44 -55 71 -89 197 -119 299 -69 96 46 101 74 103 506 1
336 2 353 25 430 13 44 25 103 27 131 4 46 2 55 -26 86 -44 50 -132 87 -222
92 -41 3 -83 3 -94 0z m-322 -485 c27 -7 41 -18 48 -37 15 -37 3 -129 -22
-168 -27 -44 -92 -74 -158 -74 -45 0 -57 4 -82 29 -28 29 -35 53 -30 116 9
108 120 169 244 134z"/>
<path d="M3930 5225 c-71 -20 -122 -61 -134 -108 -7 -28 -4 -52 15 -114 24
-77 24 -84 24 -473 0 -356 2 -398 17 -427 37 -67 121 -100 231 -90 144 13 233
150 272 416 26 178 34 215 53 240 53 71 135 88 178 38 24 -28 24 -31 24 -235
0 -329 36 -418 180 -451 144 -33 261 10 314 116 44 87 51 154 50 473 -1 381
-11 433 -101 524 -75 75 -192 112 -333 103 -142 -8 -246 -60 -320 -159 l-34
-47 -18 46 c-23 61 -80 118 -137 139 -66 23 -213 28 -281 9z"/>
</g>
</svg>
